<?xml version="1.0" encoding="UTF-8" ?>
<svg version="1.1" width="32" height="32" xmlns="http://www.w3.org/2000/svg" shape-rendering="crispEdges">
<rect x="17" y="16" width="1" height="1" fill="#CBC1F2" />
<rect x="12" y="17" width="1" height="1" fill="#CBC1F2" />
<rect x="13" y="17" width="1" height="1" fill="#43434F" />
<rect x="14" y="17" width="1" height="3" fill="#272736" />
<rect x="15" y="17" width="5" height="1" fill="#43434F" />
<rect x="20" y="17" width="1" height="1" fill="#272736" />
<rect x="12" y="18" width="1" height="8" fill="#43434F" />
<rect x="13" y="18" width="1" height="1" fill="#272736" />
<rect x="15" y="18" width="2" height="1" fill="#272736" />
<rect x="17" y="18" width="4" height="4" fill="#1B1B25" />
<rect x="21" y="18" width="1" height="2" fill="#272736" />
<rect x="24" y="18" width="1" height="1" fill="#CBC1F2" />
<rect x="13" y="19" width="1" height="1" fill="#43434F" />
<rect x="15" y="19" width="1" height="1" fill="#272736" />
<rect x="16" y="19" width="1" height="3" fill="#1B1B25" />
<rect x="11" y="20" width="1" height="5" fill="#43434F" />
<rect x="13" y="20" width="1" height="1" fill="#272736" />
<rect x="14" y="20" width="2" height="1" fill="#1B1B25" />
<rect x="21" y="20" width="1" height="2" fill="#1B1B25" />
<rect x="22" y="20" width="1" height="1" fill="#272736" />
<rect x="31" y="20" width="1" height="1" fill="#CBC1F2" />
<rect x="10" y="21" width="1" height="1" fill="#272736" />
<rect x="13" y="21" width="3" height="3" fill="#43434F" />
<rect x="22" y="21" width="1" height="2" fill="#1B1B25" />
<rect x="5" y="22" width="1" height="1" fill="#CBC1F2" />
<rect x="9" y="22" width="1" height="1" fill="#272736" />
<rect x="10" y="22" width="1" height="3" fill="#43434F" />
<rect x="16" y="22" width="1" height="2" fill="#43434F" />
<rect x="17" y="22" width="5" height="1" fill="#272736" />
<rect x="23" y="22" width="1" height="1" fill="#1B1B25" />
<rect x="30" y="22" width="1" height="2" fill="#272736" />
<rect x="7" y="23" width="1" height="1" fill="#272736" />
<rect x="8" y="23" width="2" height="2" fill="#43434F" />
<rect x="17" y="23" width="3" height="1" fill="#43434F" />
<rect x="20" y="23" width="4" height="1" fill="#272736" />
<rect x="24" y="23" width="3" height="1" fill="#1B1B25" />
<rect x="29" y="23" width="1" height="2" fill="#272736" />
<rect x="4" y="24" width="1" height="1" fill="#272736" />
<rect x="5" y="24" width="3" height="1" fill="#43434F" />
<rect x="13" y="24" width="2" height="2" fill="#43434F" />
<rect x="15" y="24" width="8" height="1" fill="#272736" />
<rect x="23" y="24" width="1" height="1" fill="#CBC1F2" />
<rect x="24" y="24" width="3" height="3" fill="#272736" />
<rect x="27" y="24" width="1" height="1" fill="#1B1B25" />
<rect x="28" y="24" width="1" height="1" fill="#272736" />
<rect x="30" y="24" width="1" height="1" fill="#1B1B25" />
<rect x="1" y="25" width="1" height="2" fill="#272736" />
<rect x="2" y="25" width="5" height="1" fill="#43434F" />
<rect x="7" y="25" width="5" height="2" fill="#272736" />
<rect x="15" y="25" width="1" height="2" fill="#43434F" />
<rect x="16" y="25" width="8" height="1" fill="#272736" />
<rect x="27" y="25" width="1" height="2" fill="#272736" />
<rect x="28" y="25" width="2" height="1" fill="#1B1B25" />
<rect x="0" y="26" width="1" height="1" fill="#272736" />
<rect x="2" y="26" width="5" height="1" fill="#272736" />
<rect x="12" y="26" width="2" height="2" fill="#272736" />
<rect x="14" y="26" width="1" height="1" fill="#43434F" />
<rect x="16" y="26" width="6" height="1" fill="#43434F" />
<rect x="22" y="26" width="2" height="1" fill="#272736" />
<rect x="28" y="26" width="2" height="3" fill="#272736" />
<rect x="0" y="27" width="12" height="1" fill="#1B1B25" />
<rect x="14" y="27" width="4" height="1" fill="#272736" />
<rect x="18" y="27" width="10" height="1" fill="#43434F" />
<rect x="30" y="27" width="2" height="2" fill="#272736" />
<rect x="17" y="28" width="11" height="1" fill="#272736" />
<rect x="1" y="29" width="1" height="1" fill="#CBC1F2" />
<rect x="13" y="29" width="1" height="1" fill="#CBC1F2" />
<rect x="28" y="31" width="1" height="1" fill="#CBC1F2" />
</svg>